<svg xmlns="http://www.w3.org/2000/svg" viewBox="0 0 512 512" width="100%" height="100%">
  <!-- Background Orange Circle -->
  <circle cx="256" cy="256" r="240" fill="#F97316" />
  
  <!-- Inset Paw Prints in dark indigo/navy -->
  <g fill="#1E1B4B">
    <!-- Top-Left Paw Print -->
    <g transform="translate(100, 120) scale(1.1)">
      <!-- Main/Metacarpal Pad -->
      <path d="M 50 65 C 32 65 18 78 18 94 C 18 101 21 107 26 112 C 29 115 34 117 39 115 C 40 115 41 115 41 114 C 44 112 47 111 50 111 C 53 111 56 112 59 114 C 59 115 60 115 61 115 C 66 117 71 115 74 112 C 79 107 82 101 82 94 C 82 78 68 65 50 65 Z" />
      <!-- Toe Beans -->
      <ellipse cx="20" cy="50" rx="9" ry="13" transform="rotate(-20 20 50)"/>
      <ellipse cx="40" cy="35" rx="9" ry="14" transform="rotate(-5 40 35)"/>
      <ellipse cx="60" cy="35" rx="9" ry="14" transform="rotate(5 60 35)"/>
      <ellipse cx="80" cy="50" rx="9" ry="13" transform="rotate(20 80 50)"/>
    </g>
    
    <!-- Bottom-Right Paw Print -->
    <g transform="translate(230, 220) scale(1.1)">
      <!-- Main/Metacarpal Pad -->
      <path d="M 50 65 C 32 65 18 78 18 94 C 18 101 21 107 26 112 C 29 115 34 117 39 115 C 40 115 41 115 41 114 C 44 112 47 111 50 111 C 53 111 56 112 59 114 C 59 115 60 115 61 115 C 66 117 71 115 74 112 C 79 107 82 101 82 94 C 82 78 68 65 50 65 Z" />
      <!-- Toe Beans -->
      <ellipse cx="20" cy="50" rx="9" ry="13" transform="rotate(-20 20 50)"/>
      <ellipse cx="40" cy="35" rx="9" ry="14" transform="rotate(-5 40 35)"/>
      <ellipse cx="60" cy="35" rx="9" ry="14" transform="rotate(5 60 35)"/>
      <ellipse cx="80" cy="50" rx="9" ry="13" transform="rotate(20 80 50)"/>
    </g>
  </g>
</svg>